<svg width="39" height="39" viewBox="0 0 39 39" fill="none" xmlns="http://www.w3.org/2000/svg">
<path d="M19.5 0.75C9.16875 0.75 0.75 9.16875 0.75 19.5C0.75 29.8313 9.16875 38.25 19.5 38.25C29.8313 38.25 38.25 29.8313 38.25 19.5C38.25 9.16875 29.8313 0.75 19.5 0.75ZM24.7313 20.4937L18.1125 27.1125C17.8313 27.3937 17.475 27.525 17.1187 27.525C16.7625 27.525 16.4062 27.3937 16.125 27.1125C15.5812 26.5687 15.5812 25.6688 16.125 25.125L21.75 19.5L16.125 13.875C15.5812 13.3313 15.5812 12.4312 16.125 11.8875C16.6687 11.3438 17.5688 11.3438 18.1125 11.8875L24.7313 18.5063C25.2938 19.05 25.2938 19.95 24.7313 20.4937Z" fill="#F53838"/>
</svg>
