<svg width="38" height="37" viewBox="0 0 38 37" fill="none" xmlns="http://www.w3.org/2000/svg">
<rect x="0.5" width="37" height="37" rx="18.5" fill="#F53838" fill-opacity="0.1"/>
<path d="M28.98 17.91C28.64 12.11 23.37 7.63996 17.3 8.63996C13.12 9.32996 9.76999 12.7199 9.11999 16.8999C8.73999 19.3199 9.24001 21.6099 10.33 23.4999L9.43999 26.8099C9.23999 27.5599 9.92998 28.2399 10.67 28.0299L13.93 27.13C15.41 28 17.14 28.4999 18.99 28.4999C24.63 28.4999 29.31 23.53 28.98 17.91ZM23.88 22.2199C23.79 22.3999 23.68 22.57 23.54 22.73C23.29 23 23.02 23.2 22.72 23.32C22.42 23.45 22.09 23.51 21.74 23.51C21.23 23.51 20.68 23.39 20.11 23.14C19.53 22.89 18.96 22.5599 18.39 22.1499C17.81 21.7299 17.27 21.2599 16.75 20.7499C16.23 20.2299 15.77 19.6799 15.35 19.1099C14.94 18.5399 14.61 17.9699 14.37 17.3999C14.13 16.8299 14.01 16.28 14.01 15.76C14.01 15.42 14.07 15.09 14.19 14.79C14.31 14.48 14.5 14.2 14.77 13.95C15.09 13.63 15.44 13.48 15.81 13.48C15.95 13.48 16.09 13.51 16.22 13.57C16.35 13.63 16.47 13.72 16.56 13.85L17.72 15.4899C17.81 15.6199 17.88 15.7299 17.92 15.8399C17.97 15.9499 17.99 16.0499 17.99 16.1499C17.99 16.2699 17.95 16.39 17.88 16.51C17.81 16.63 17.72 16.7499 17.6 16.8699L17.22 17.2699C17.16 17.3299 17.14 17.3899 17.14 17.4699C17.14 17.5099 17.15 17.5499 17.16 17.5899C17.18 17.6299 17.19 17.66 17.2 17.6899C17.29 17.86 17.45 18.0699 17.67 18.3299C17.9 18.5899 18.14 18.8599 18.4 19.1199C18.67 19.3899 18.93 19.6299 19.2 19.8599C19.46 20.0799 19.68 20.23 19.85 20.32C19.88 20.33 19.91 20.3499 19.94 20.3599C19.98 20.3799 20.02 20.38 20.07 20.38C20.16 20.38 20.22 20.35 20.28 20.29L20.66 19.91C20.79 19.78 20.91 19.69 21.02 19.63C21.14 19.56 21.25 19.5199 21.38 19.5199C21.48 19.5199 21.58 19.5399 21.69 19.5899C21.8 19.6399 21.92 19.7 22.04 19.79L23.7 20.9699C23.83 21.0599 23.92 21.17 23.98 21.29C24.03 21.42 24.06 21.5399 24.06 21.6799C24 21.8499 23.96 22.0399 23.88 22.2199Z" fill="#F53838"/>
</svg>
